<?xml version="1.0" encoding="UTF-8" standalone="no"?>
<!-- Created with Inkscape (http://www.inkscape.org/) -->

<svg
   width="40"
   height="60"
   viewBox="0 0 10.583333 15.875"
   version="1.1"
   id="svg1"
   xml:space="preserve"
   inkscape:version="1.3 (0e150ed6c4, 2023-07-21)"
   sodipodi:docname="toypad.svg"
   xmlns:inkscape="http://www.inkscape.org/namespaces/inkscape"
   xmlns:sodipodi="http://sodipodi.sourceforge.net/DTD/sodipodi-0.dtd"
   xmlns="http://www.w3.org/2000/svg"
   xmlns:svg="http://www.w3.org/2000/svg"><sodipodi:namedview
     id="namedview1"
     pagecolor="#ffffff"
     bordercolor="#000000"
     borderopacity="0.25"
     inkscape:showpageshadow="2"
     inkscape:pageopacity="0.0"
     inkscape:pagecheckerboard="0"
     inkscape:deskcolor="#d1d1d1"
     inkscape:document-units="mm"
     inkscape:zoom="6.568359"
     inkscape:cx="-37.300032"
     inkscape:cy="94.011305"
     inkscape:window-width="3440"
     inkscape:window-height="1387"
     inkscape:window-x="3832"
     inkscape:window-y="646"
     inkscape:window-maximized="1"
     inkscape:current-layer="layer1" /><defs
     id="defs1"><pattern
       id="EMFhbasepattern"
       patternUnits="userSpaceOnUse"
       width="6"
       height="6"
       x="0"
       y="0" /></defs><g
     inkscape:label="Ebene 1"
     inkscape:groupmode="layer"
     id="layer1"><g
       id="g2"
       transform="matrix(0.1,0,0,0.1,2.5e-7,0.05105688)"
       style="fill:#ffffff"><path
         id="path1"
         style="fill:#ffffff;stroke-width:0.581593"
         d="M 14.054662,79.798139 C 9.3697735,100.09915 4.6848861,120.40016 -1.6666667e-6,140.70117 35.277869,140.6457 70.556489,140.69883 105.83333,140.37716 101.06693,120.18365 96.300535,99.990128 91.534129,79.796611 c -25.825982,0.001 -51.656036,-0.002 -77.479467,0.0016 z m 38.583076,9.322907 c 4.433709,-0.175104 9.027463,1.751935 11.643619,5.406333 1.137746,1.553787 1.998315,3.526762 1.511361,5.478331 -0.544679,3.43975 -2.7442,6.56239 -5.816041,8.21134 -3.839999,2.12424 -8.607721,2.36079 -12.717186,0.89934 -2.61795,-0.93135 -4.99324,-2.77725 -6.146484,-5.35134 -1.298819,-2.60486 -1.543267,-5.896571 0.01951,-8.447618 1.726921,-2.93577 4.799106,-4.933655 8.058757,-5.768704 1.12749,-0.276727 2.287099,-0.402076 3.446468,-0.427682 z m 38.896391,9.318321 c 2.78043,12.578823 5.561976,25.157403 8.341711,37.736373 -13.834586,0.0775 -27.669161,0.15644 -41.50375,0.23231 0.0073,-6.38696 0.0187,-12.77391 0.02598,-19.16087 6.166868,0.0396 12.333748,0.0773 18.50062,0.11616 -0.790179,-6.13257 -1.571966,-12.27005 -2.124399,-18.42726 -0.167985,-0.598054 0.525376,-0.898574 1.013379,-0.755143 5.218753,-0.02083 10.449651,-0.04635 15.673096,-0.06863 0.02445,0.109022 0.04891,0.218044 0.07336,0.327066 z M 20.510393,98.19636 c 3.528053,0.0202 7.057371,-0.0038 10.58379,0.123796 -0.634867,6.343244 -1.523714,12.657974 -2.165665,19.000384 6.444523,0.0269 12.889043,0.0545 19.333568,0.081 -0.16574,6.34368 -0.333294,12.68731 -0.499769,19.03096 -13.823886,-0.11222 -27.647773,-0.2244 -41.4716495,-0.33776 2.7417373,-12.59973 5.4903905,-25.19795 8.2469515,-37.794452 1.987996,-0.145524 3.981709,-0.07231 5.972774,-0.103928 z" /><g
         id="g3"
         transform="matrix(0.57849492,0,0,0.57849492,44.287887,-87.734251)"
         style="fill:#ffffff">&#10;	&#10;	&#10;	&#10;	<g
   id="g1"
   transform="matrix(0.37197722,0,0,0.37197722,-53.135856,167.06448)"
   style="fill:#ffffff"><path
     d="m 182.946,176.029 c -35.658,0 -69.337,17.345 -90.09,46.398 -5.921,8.288 -4.001,19.806 4.286,25.726 3.249,2.321 6.994,3.438 10.704,3.438 5.754,0 11.423,-2.686 15.021,-7.724 13.846,-19.383 36.305,-30.954 60.078,-30.954 23.775,0 46.233,11.571 60.077,30.953 5.919,8.286 17.437,10.209 25.726,4.288 8.288,-5.92 10.208,-17.438 4.288,-25.726 -20.751,-29.055 -54.43,-46.399 -90.09,-46.399 z"
     id="path1-6"
     style="fill:#ffffff" /><path
     d="m 182.946,106.873 c -50.938,0 -99.694,21.749 -133.77,59.67 -6.807,7.576 -6.185,19.236 1.392,26.044 3.523,3.166 7.929,4.725 12.32,4.725 5.051,-0.001 10.082,-2.063 13.723,-6.116 27.091,-30.148 65.849,-47.439 106.336,-47.439 40.487,0 79.246,17.291 106.338,47.438 6.808,7.576 18.468,8.198 26.043,1.391 7.576,-6.808 8.198,-18.468 1.391,-26.043 -34.078,-37.922 -82.836,-59.67 -133.773,-59.67 z"
     id="path2"
     style="fill:#ffffff" /><path
     d="M 360.611,112.293 C 313.402,64.201 250.306,37.716 182.946,37.716 c -67.357,0 -130.453,26.485 -177.664,74.579 -7.135,7.269 -7.027,18.944 0.241,26.079 3.59,3.524 8.255,5.282 12.918,5.281 4.776,0 9.551,-1.845 13.161,-5.522 40.22,-40.971 93.968,-63.534 151.344,-63.534 57.379,0 111.127,22.563 151.343,63.532 7.136,7.269 18.812,7.376 26.08,0.242 7.268,-7.135 7.376,-18.811 0.242,-26.08 z"
     id="path3"
     style="fill:#ffffff" /></g>&#10;</g></g></g></svg>
